<svg width="40" height="40" viewBox="0 0 40 40" fill="none" xmlns="http://www.w3.org/2000/svg">
<path d="M7.05141 30.6276C7.09038 30.7919 7.16219 30.9466 7.26251 31.0825C7.36284 31.2183 7.48961 31.3324 7.63519 31.418C7.78078 31.5036 7.94217 31.5588 8.10965 31.5804C8.27714 31.602 8.44726 31.5894 8.60978 31.5435C16.0612 29.4862 23.9308 29.4854 31.3826 31.5414C31.5451 31.5872 31.7151 31.5997 31.8825 31.5782C32.05 31.5566 32.2113 31.5014 32.3568 31.4159C32.5024 31.3303 32.6291 31.2163 32.7294 31.0805C32.8298 30.9447 32.9016 30.7901 32.9406 30.6258L36.9232 13.7013C36.9765 13.4748 36.9655 13.2378 36.8915 13.0171C36.8174 12.7965 36.6832 12.6009 36.5039 12.4524C36.3247 12.3039 36.1075 12.2084 35.8769 12.1767C35.6464 12.1449 35.4115 12.1782 35.1988 12.2727L27.2951 15.7855C27.0097 15.9123 26.6871 15.9278 26.3909 15.8287C26.0948 15.7296 25.8464 15.5233 25.6947 15.2503L21.0928 6.9668C20.9845 6.77193 20.8261 6.60956 20.634 6.49651C20.4418 6.38347 20.223 6.32385 20.0001 6.32385C19.7771 6.32385 19.5583 6.38347 19.3662 6.49651C19.174 6.60956 19.0156 6.77193 18.9074 6.9668L14.3054 15.2503C14.1538 15.5233 13.9054 15.7296 13.6092 15.8287C13.313 15.9278 12.9905 15.9123 12.7051 15.7855L4.80015 12.2722C4.5875 12.1777 4.35268 12.1444 4.12213 12.1761C3.89159 12.2078 3.67447 12.3033 3.49524 12.4517C3.316 12.6001 3.18175 12.7957 3.10761 13.0162C3.03347 13.2368 3.02238 13.4737 3.0756 13.7003L7.05141 30.6276Z" stroke="#FFC000" stroke-width="3" stroke-linecap="round" stroke-linejoin="round"/>
<path d="M15 25.2623C18.3242 24.9126 21.6758 24.9126 25 25.2623" stroke="#FFC000" stroke-width="3" stroke-linecap="round" stroke-linejoin="round"/>
</svg>
