<svg width="40" height="40" viewBox="0 0 40 40" fill="none" xmlns="http://www.w3.org/2000/svg">
<path d="M13.75 25C18.2373 25 21.875 21.3623 21.875 16.875C21.875 12.3877 18.2373 8.75 13.75 8.75C9.26269 8.75 5.625 12.3877 5.625 16.875C5.625 21.3623 9.26269 25 13.75 25Z" stroke="#FFC000" stroke-width="3" stroke-miterlimit="10"/>
<path d="M24.2832 9.05268C25.4007 8.73782 26.5728 8.66609 27.7204 8.84233C28.8679 9.01857 29.9644 9.43868 30.936 10.0744C31.9075 10.7101 32.7316 11.5466 33.3526 12.5276C33.9737 13.5085 34.3773 14.6112 34.5363 15.7613C34.6953 16.9114 34.6059 18.0822 34.2743 19.1949C33.9427 20.3076 33.3766 21.3363 32.6139 22.2117C31.8513 23.0872 30.9099 23.789 29.8531 24.27C28.7964 24.751 27.6489 24.9999 26.4878 25" stroke="#FFC000" stroke-width="3" stroke-linecap="round" stroke-linejoin="round"/>
<path d="M2.49951 30.8432C3.76847 29.0382 5.45309 27.565 7.41115 26.548C9.36921 25.531 11.5432 25.0001 13.7496 25C15.9561 24.9999 18.1301 25.5307 20.0883 26.5476C22.0464 27.5644 23.7311 29.0375 25.0002 30.8424" stroke="#FFC000" stroke-width="3" stroke-linecap="round" stroke-linejoin="round"/>
<path d="M26.4878 25C28.6944 24.9984 30.8689 25.5285 32.8272 26.5455C34.7855 27.5625 36.4699 29.0364 37.7378 30.8424" stroke="#FFC000" stroke-width="3" stroke-linecap="round" stroke-linejoin="round"/>
</svg>
